<svg width="120" height="32" viewBox="0 0 120 32" fill="none" xmlns="http://www.w3.org/2000/svg">
  <path d="M14.8284 0H2.17157C0.972369 0 0 0.972369 0 2.17157V14.8284C0 16.0276 0.972369 17 2.17157 17H14.8284C16.0276 17 17 16.0276 17 14.8284V2.17157C17 0.972369 16.0276 0 14.8284 0Z" fill="#0070F0"/>
  <path d="M29.8284 15H17.1716C15.9724 15 15 15.9724 15 17.1716V29.8284C15 31.0276 15.9724 32 17.1716 32H29.8284C31.0276 32 32 31.0276 32 29.8284V17.1716C32 15.9724 31.0276 15 29.8284 15Z" fill="#0070F0"/>
  <path d="M44 4.5C44 2.01472 46.0147 0 48.5 0H111.5C113.985 0 116 2.01472 116 4.5C116 6.98528 113.985 9 111.5 9H48.5C46.0147 9 44 6.98528 44 4.5Z" fill="#0070F0"/>
  <path d="M44 27.5C44 25.0147 46.0147 23 48.5 23H111.5C113.985 23 116 25.0147 116 27.5C116 29.9853 113.985 32 111.5 32H48.5C46.0147 32 44 29.9853 44 27.5Z" fill="#0070F0"/>
</svg>